<?xml version="1.0" encoding="utf-8"?>
<!-- Generator: Adobe Illustrator 16.0.0, SVG Export Plug-In . SVG Version: 6.00 Build 0)  -->
<!DOCTYPE svg PUBLIC "-//W3C//DTD SVG 1.1//EN" "http://www.w3.org/Graphics/SVG/1.1/DTD/svg11.dtd">
<svg version="1.1" id="Capa_1" xmlns="http://www.w3.org/2000/svg" xmlns:xlink="http://www.w3.org/1999/xlink" x="0px" y="0px"
	 width="509px" height="102.512px" viewBox="0 0 509 102.512" enable-background="new 0 0 509 102.512" xml:space="preserve">
<g>
	<path fill="#FFFFFF" d="M47.795,5.082c4.336,0,8.249,0.377,11.826,1.146c3.557,0.754,6.591,2.01,9.155,3.738
		c2.524,1.729,4.501,4.021,5.916,6.919c1.384,2.843,2.074,6.413,2.074,10.634c0,4.562-1.036,8.371-3.104,11.423
		c-2.088,3.039-5.154,5.534-9.252,7.479c5.58,1.602,9.712,4.425,12.449,8.438c2.754,4.047,4.103,8.883,4.103,14.56
		c0,4.592-0.88,8.551-2.639,11.879c-1.774,3.367-4.191,6.104-7.172,8.209c-3.001,2.123-6.448,3.684-10.313,4.699
		c-3.819,1.014-7.785,1.522-11.846,1.522H5.057V5.082H47.795z M45.213,41.702c3.536,0,6.464-0.833,8.784-2.541
		c2.295-1.677,3.407-4.443,3.407-8.242c0-2.111-0.369-3.854-1.111-5.203c-0.771-1.354-1.788-2.414-3.075-3.154
		c-1.277-0.771-2.72-1.303-4.394-1.592c-1.646-0.324-3.368-0.445-5.135-0.445H25.018v21.181L45.213,41.702L45.213,41.702z
		 M46.316,80.292c1.972,0,3.839-0.178,5.598-0.572c1.783-0.39,3.367-1.009,4.7-1.923c1.337-0.875,2.441-2.084,3.245-3.617
		c0.809-1.52,1.192-3.489,1.192-5.876c0-4.673-1.313-7.985-3.929-10.003c-2.619-1.984-6.111-2.973-10.407-2.973H25.018v24.964
		H46.316z"/>
	<path fill="#FFFFFF" d="M109.414,79.988c2.698,2.64,6.602,3.969,11.656,3.969c3.638,0,6.78-0.919,9.415-2.758
		c2.612-1.825,4.202-3.782,4.818-5.813h15.875c-2.551,7.896-6.423,13.541-11.704,16.936c-5.221,3.408-11.587,5.109-19.006,5.109
		c-5.17,0-9.823-0.833-14.001-2.486c-4.173-1.668-7.665-4.009-10.599-7.055c-2.861-3.063-5.082-6.688-6.665-10.938
		c-1.566-4.233-2.357-8.912-2.357-13.988c0-4.908,0.82-9.492,2.424-13.734c1.639-4.248,3.898-7.92,6.874-10.999
		c2.981-3.092,6.521-5.532,10.638-7.313c4.116-1.781,8.658-2.68,13.688-2.68c5.553,0,10.417,1.07,14.585,3.248
		c4.154,2.146,7.563,5.059,10.236,8.699c2.675,3.638,4.578,7.792,5.767,12.457c1.181,4.653,1.594,9.521,1.254,14.609H104.95
		C104.951,72.44,106.704,77.354,109.414,79.988z M130.128,45.507c-2.144-2.372-5.772-3.657-10.199-3.657
		c-2.88,0-5.265,0.484-7.174,1.473c-1.865,0.978-3.396,2.191-4.564,3.616c-1.163,1.454-1.956,2.985-2.417,4.624
		c-0.464,1.596-0.738,3.047-0.821,4.325h29.332C133.852,51.295,132.278,47.894,130.128,45.507z"/>
	<path fill="#FFFFFF" d="M177.921,5.082v34.179h0.413c2.289-3.804,5.185-6.567,8.74-8.282c3.553-1.729,7.02-2.581,10.396-2.581
		c4.818,0,8.76,0.631,11.842,1.942c3.083,1.324,5.523,3.119,7.311,5.459c1.754,2.326,2.989,5.17,3.718,8.512
		c0.713,3.34,1.082,7.025,1.082,11.086v40.33h-18.116V58.671c0-5.406-0.843-9.476-2.522-12.128
		c-1.686-2.658-4.671-3.994-8.982-3.994c-4.873,0-8.396,1.479-10.578,4.39c-2.226,2.917-3.301,7.718-3.301,14.396V95.73H159.81
		V5.082H177.921z"/>
	<path fill="#FFFFFF" d="M234.293,39.698c1.835-2.791,4.198-5.057,7.075-6.741c2.878-1.708,6.094-2.911,9.708-3.623
		c3.601-0.747,7.197-1.101,10.854-1.101c3.288,0,6.615,0.236,10.037,0.699c3.371,0.465,6.451,1.379,9.248,2.737
		c2.79,1.361,5.063,3.23,6.83,5.675c1.786,2.38,2.688,5.6,2.688,9.593v34.206c0,2.979,0.181,5.803,0.496,8.513
		c0.355,2.729,1.283,4.772,2.16,6.117l-18.42-0.048c-0.537-0.785-0.986-2.01-1.195-3.079c-0.211-1.048-0.357-2.123-0.441-3.231
		c-2.866,2.974-6.232,5.056-10.148,6.246c-3.887,1.177-7.849,1.769-11.916,1.769c-3.119,0-6.022-0.396-8.743-1.156
		c-2.68-0.766-5.057-1.949-7.083-3.549c-2.037-1.635-3.604-3.658-4.746-6.104c-1.137-2.471-1.722-5.399-1.722-8.788
		c0-3.738,0.669-6.816,1.997-9.228c1.287-2.413,2.965-4.348,5.062-5.781c2.063-1.44,4.433-2.531,7.11-3.245
		c2.659-0.714,5.358-1.306,8.03-1.724c2.716-0.414,5.359-0.752,8.001-1.014c2.646-0.262,4.939-0.633,6.988-1.146
		c2.021-0.506,3.638-1.266,4.824-2.229c1.166-0.974,1.729-2.387,1.646-4.271c0-1.937-0.343-3.486-0.968-4.646
		c-0.625-1.136-1.476-2.018-2.51-2.655c-1.063-0.639-2.263-1.056-3.644-1.284c-1.402-0.199-2.892-0.313-4.479-0.313
		c-3.525,0-6.317,0.788-8.3,2.294c-2.033,1.553-3.203,4.104-3.563,7.67h-18.08C231.351,46.006,232.4,42.488,234.293,39.698z
		 M269.775,65.238c-1.123,0.377-2.359,0.688-3.643,0.954c-1.322,0.256-2.703,0.458-4.136,0.643c-1.419,0.168-2.876,0.36-4.292,0.619
		c-1.352,0.268-2.7,0.598-3.984,1.025c-1.307,0.423-2.453,0.993-3.395,1.707c-0.979,0.733-1.761,1.643-2.354,2.729
		c-0.577,1.09-0.888,2.514-0.888,4.192c0,1.603,0.311,2.959,0.888,4.067c0.595,1.103,1.376,1.962,2.397,2.601
		c1.019,0.643,2.212,1.083,3.542,1.332c1.349,0.271,2.742,0.369,4.172,0.369c3.543,0,6.274-0.59,8.228-1.771
		c1.938-1.187,3.397-2.604,4.311-4.258c0.928-1.652,1.488-3.313,1.674-4.994c0.234-1.693,0.343-3.054,0.343-4.072V63.63
		C271.857,64.33,270.938,64.861,269.775,65.238z"/>
	<path fill="#FFFFFF" d="M317.775,30.111v9.149h0.402c2.275-3.804,5.225-6.567,8.881-8.282c3.625-1.729,7.379-2.581,11.186-2.581
		c4.836,0,8.809,0.631,11.872,1.942c3.121,1.324,5.549,3.119,7.309,5.459c1.806,2.326,3.044,5.17,3.767,8.512
		c0.731,3.34,1.093,7.025,1.093,11.086v40.33H344.16V58.671c0-5.406-0.852-9.476-2.542-12.128c-1.713-2.658-4.672-4.365-9.011-4.365
		c-4.906,0-8.479,1.85-10.674,4.761c-2.211,2.917-3.305,7.718-3.305,14.396V95.73h-17.926V30.111H317.775z"/>
	<path fill="#FFFFFF" d="M402.396,41.85c-2.897,0-5.29,0.639-7.219,1.97c-1.963,1.324-3.564,3.005-4.792,5.089
		c-1.23,2.064-2.079,4.356-2.604,6.857c-0.494,2.508-0.766,4.982-0.766,7.449c0,2.379,0.271,4.794,0.766,7.261
		c0.525,2.454,1.333,4.666,2.479,6.677c1.159,1.979,2.703,3.604,4.649,4.89c1.938,1.274,4.297,1.915,7.095,1.915
		c4.342,0,7.665-1.219,9.997-3.608c2.317-2.414,3.755-5.654,4.359-9.723h17.413c-1.197,8.707-4.583,15.354-10.156,19.938
		c-5.594,4.563-12.758,6.864-21.479,6.864c-4.929,0-9.407-0.833-13.534-2.486c-4.125-1.668-7.629-3.967-10.514-6.933
		c-2.886-2.971-5.12-6.507-6.761-10.615c-1.603-4.122-2.406-8.639-2.406-13.548c0-5.082,0.75-9.813,2.229-14.185
		c1.479-4.362,3.656-8.137,6.568-11.305c2.881-3.186,6.4-5.666,10.571-7.445c4.149-1.78,8.894-2.68,14.224-2.68
		c3.896,0,7.638,0.531,11.25,1.516c3.588,1.009,6.813,2.562,9.643,4.646c2.836,2.065,5.159,4.646,6.94,7.72
		c1.759,3.071,2.765,6.76,3.041,10.965h-17.677C414.545,45.587,410.105,41.85,402.396,41.85z"/>
	<rect x="101.262" y="11.157" fill="#FFFFFF" width="36.744" height="8.949"/>
	<path fill="#FFFFFF" d="M460.88,79.988c2.705,2.64,6.796,3.969,11.89,3.969c3.63,0,6.767-0.919,9.387-2.758
		c2.619-1.825,4.242-3.782,4.822-5.813h15.875c-2.536,7.896-6.438,13.541-11.683,16.936c-5.241,3.408-11.582,5.109-19.027,5.109
		c-5.184,0-9.854-0.833-14.001-2.486c-4.169-1.668-7.659-4.009-10.58-7.055c-2.892-3.063-5.11-6.688-6.688-10.938
		c-1.565-4.233-2.345-8.912-2.345-13.988c0-4.908,0.806-9.492,2.41-13.734c1.623-4.248,3.937-7.92,6.895-10.999
		c2.994-3.092,6.501-5.532,10.607-7.313c4.12-1.78,8.697-2.68,13.698-2.68c5.548,0,10.432,1.07,14.561,3.248
		c4.164,2.146,7.587,5.059,10.242,8.699c2.675,3.638,4.602,7.792,5.775,12.457c1.164,4.653,1.615,9.521,1.277,14.609H456.43
		C456.433,72.44,458.162,77.354,460.88,79.988z M481.817,45.507c-2.175-2.372-5.826-3.657-10.201-3.657
		c-2.876,0-5.269,0.484-7.209,1.473c-1.871,0.978-3.577,2.191-4.725,3.616c-1.146,1.454-1.968,2.985-2.446,4.624
		c-0.428,1.596-0.727,3.047-0.805,4.325h29.554C485.503,51.295,483.97,47.894,481.817,45.507z"/>
</g>
</svg>
