<?xml version="1.0" encoding="utf-8"?>
<!-- Generator: Adobe Illustrator 16.0.0, SVG Export Plug-In . SVG Version: 6.00 Build 0)  -->
<!DOCTYPE svg PUBLIC "-//W3C//DTD SVG 1.1//EN" "http://www.w3.org/Graphics/SVG/1.1/DTD/svg11.dtd">
<svg version="1.1" id="Capa_1" xmlns="http://www.w3.org/2000/svg" xmlns:xlink="http://www.w3.org/1999/xlink" x="0px" y="0px"
	 width="27.548px" height="17.065px" viewBox="0 0 27.548 17.065" enable-background="new 0 0 27.548 17.065" xml:space="preserve">
<g>
	<path fill="#00FFA8" d="M8.053-0.159c0.809,0,1.537,0.072,2.205,0.215c0.664,0.141,1.229,0.373,1.708,0.695
		c0.472,0.324,0.839,0.75,1.104,1.291c0.259,0.531,0.386,1.195,0.386,1.982c0,0.852-0.191,1.564-0.578,2.135
		c-0.389,0.564-0.962,1.031-1.725,1.391c1.04,0.301,1.812,0.826,2.321,1.576c0.513,0.756,0.765,1.654,0.765,2.715
		c0,0.855-0.164,1.596-0.492,2.217c-0.331,0.629-0.781,1.139-1.338,1.529c-0.559,0.396-1.203,0.688-1.924,0.877
		c-0.713,0.189-1.451,0.283-2.208,0.283H0.081V-0.159H8.053z M7.571,6.671c0.66,0,1.205-0.156,1.64-0.475
		c0.427-0.313,0.636-0.828,0.636-1.537c0-0.393-0.07-0.717-0.209-0.971c-0.144-0.25-0.333-0.451-0.572-0.588
		C8.826,2.958,8.557,2.858,8.244,2.804C7.938,2.743,7.616,2.722,7.287,2.722H3.803v3.949H7.571L7.571,6.671z M7.776,13.868
		c0.368,0,0.715-0.033,1.043-0.104c0.333-0.074,0.631-0.189,0.878-0.361c0.251-0.162,0.456-0.389,0.606-0.676
		c0.149-0.281,0.223-0.648,0.223-1.094c0-0.873-0.246-1.49-0.734-1.867C9.303,9.397,8.653,9.214,7.85,9.214H3.803v4.654H7.776z"/>
	<path fill="#00FFA8" d="M19.545,13.812c0.504,0.492,1.232,0.74,2.176,0.74c0.679,0,1.264-0.172,1.756-0.514
		c0.487-0.34,0.784-0.707,0.897-1.086h2.962c-0.477,1.475-1.197,2.527-2.184,3.162c-0.974,0.637-2.161,0.951-3.545,0.951
		c-0.963,0-1.831-0.154-2.611-0.463c-0.778-0.313-1.429-0.748-1.978-1.318c-0.532-0.568-0.946-1.246-1.242-2.039
		c-0.292-0.787-0.44-1.662-0.44-2.609c0-0.914,0.152-1.77,0.452-2.561c0.306-0.793,0.728-1.479,1.282-2.053
		c0.557-0.578,1.216-1.031,1.986-1.363c0.766-0.334,1.613-0.5,2.551-0.5c1.037,0,1.943,0.199,2.721,0.605
		c0.775,0.4,1.41,0.943,1.91,1.623c0.498,0.68,0.854,1.451,1.075,2.322c0.22,0.869,0.297,1.779,0.234,2.727h-8.835
		C18.713,12.405,19.04,13.319,19.545,13.812z M23.41,7.38c-0.399-0.439-1.077-0.682-1.901-0.682c-0.539,0-0.982,0.092-1.34,0.273
		c-0.347,0.186-0.633,0.408-0.852,0.678c-0.216,0.271-0.363,0.555-0.449,0.863c-0.088,0.297-0.14,0.564-0.154,0.805h5.473
		C24.105,8.46,23.811,7.825,23.41,7.38z"/>
	<rect x="18.026" y="0.974" fill="#00FFA8" width="6.854" height="1.672"/>
</g>
</svg>
