<?xml version="1.0" encoding="utf-8"?>
<!-- Generator: Adobe Illustrator 16.0.0, SVG Export Plug-In . SVG Version: 6.00 Build 0)  -->
<!DOCTYPE svg PUBLIC "-//W3C//DTD SVG 1.1//EN" "http://www.w3.org/Graphics/SVG/1.1/DTD/svg11.dtd">
<svg version="1.1" id="Capa_1" xmlns="http://www.w3.org/2000/svg" xmlns:xlink="http://www.w3.org/1999/xlink" x="0px" y="0px"
	 width="30.904px" height="27.017px" viewBox="0 0 30.904 27.017" enable-background="new 0 0 30.904 27.017" xml:space="preserve">
<g>
	<path fill="#00FFA8" d="M15.452,27.017H15.45c-0.381,0-0.747-0.153-1.015-0.423L2.513,14.633C0.892,13.014,0,10.861,0,8.573
		c0-2.289,0.892-4.441,2.513-6.061C4.132,0.893,6.284,0,8.572,0s4.441,0.893,6.061,2.513l0.819,0.818l0.82-0.818
		C17.892,0.893,20.044,0,22.332,0s4.44,0.893,6.06,2.513c1.621,1.619,2.513,3.778,2.513,6.079c0,2.299-0.892,4.458-2.513,6.079
		L16.467,26.596C16.197,26.864,15.833,27.017,15.452,27.017z M8.572,2.871c-1.521,0-2.953,0.593-4.029,1.671
		C3.464,5.62,2.871,7.052,2.871,8.573c0,1.52,0.593,2.951,1.672,4.029l10.91,10.945l10.908-10.907
		c1.078-1.078,1.671-2.517,1.671-4.049c0-1.534-0.593-2.972-1.671-4.05c-2.153-2.156-5.905-2.156-8.059,0l-1.836,1.834
		c-0.561,0.562-1.469,0.562-2.03,0l-1.834-1.834C11.524,3.466,10.093,2.871,8.572,2.871z"/>
</g>
</svg>
