<?xml version="1.0" encoding="utf-8"?>
<!-- Generator: Adobe Illustrator 16.0.0, SVG Export Plug-In . SVG Version: 6.00 Build 0)  -->
<!DOCTYPE svg PUBLIC "-//W3C//DTD SVG 1.1//EN" "http://www.w3.org/Graphics/SVG/1.1/DTD/svg11.dtd">
<svg version="1.1" id="Capa_1" xmlns="http://www.w3.org/2000/svg" xmlns:xlink="http://www.w3.org/1999/xlink" x="0px" y="0px"
	 width="11.289px" height="15.557px" viewBox="0 0 11.289 15.557" enable-background="new 0 0 11.289 15.557" xml:space="preserve">
<g>
	<path fill="#00FFA8" d="M5.645,15.557c-0.193,0-0.356-0.084-0.459-0.235C4.663,14.646,0,8.525,0,5.645C0,2.532,2.532,0,5.645,0
		s5.645,2.532,5.645,5.645c0,2.879-4.664,9-5.195,9.688C6.002,15.473,5.839,15.557,5.645,15.557z M5.645,0.5
		C2.808,0.5,0.5,2.808,0.5,5.645c0,2.762,4.883,9.114,5.091,9.384l0.054,0.028c0.033,0,0.038-0.008,0.043-0.015
		c0.218-0.283,5.102-6.638,5.102-9.397C10.789,2.808,8.481,0.5,5.645,0.5z M5.645,14.877l-0.2-0.27
		c-1.8-2.417-4.817-6.795-4.817-8.963c0-2.767,2.251-5.017,5.018-5.017s5.018,2.25,5.018,5.017c0,2.243-3.368,7.015-4.817,8.963
		L5.645,14.877z M5.645,1.128c-2.491,0-4.518,2.026-4.518,4.517c0,2.006,3.012,6.348,4.518,8.393
		c1.286-1.751,4.518-6.356,4.518-8.393C10.162,3.154,8.136,1.128,5.645,1.128z"/>
	<path fill="#00FFA8" d="M5.645,8.75c-1.712,0-3.105-1.394-3.105-3.105c0-1.711,1.394-3.103,3.105-3.103s3.104,1.392,3.104,3.103
		C8.749,7.356,7.356,8.75,5.645,8.75z M5.645,3.042c-1.437,0-2.605,1.168-2.605,2.603c0,1.437,1.169,2.605,2.605,2.605
		s2.604-1.169,2.604-2.605C8.249,4.21,7.081,3.042,5.645,3.042z M5.645,8.121c-1.366,0-2.478-1.111-2.478-2.477
		s1.111-2.476,2.478-2.476c1.365,0,2.477,1.11,2.477,2.476S7.01,8.121,5.645,8.121z M5.645,3.669c-1.091,0-1.978,0.887-1.978,1.976
		c0,1.09,0.887,1.977,1.978,1.977c1.09,0,1.977-0.887,1.977-1.977C7.621,4.556,6.734,3.669,5.645,3.669z"/>
</g>
</svg>
