<?xml version="1.0" encoding="utf-8"?>
<!-- Generator: Adobe Illustrator 16.0.0, SVG Export Plug-In . SVG Version: 6.00 Build 0)  -->
<!DOCTYPE svg PUBLIC "-//W3C//DTD SVG 1.1//EN" "http://www.w3.org/Graphics/SVG/1.1/DTD/svg11.dtd">
<svg version="1.1" id="Capa_1" xmlns="http://www.w3.org/2000/svg" xmlns:xlink="http://www.w3.org/1999/xlink" x="0px" y="0px"
	 width="30.004px" height="24px" viewBox="0 0 30.004 24" enable-background="new 0 0 30.004 24" xml:space="preserve">
<g>
	<path fill="#00FFA8" d="M29.174,0.443c-1.188,0.695-2.508,1.199-3.908,1.471C24.145,0.736,22.545,0,20.773,0
		c-3.398,0-6.154,2.713-6.154,6.061c0,0.475,0.055,0.936,0.158,1.379C9.662,7.188,5.125,4.775,2.09,1.109
		C1.561,2.004,1.256,3.045,1.256,4.156c0,2.102,1.09,3.955,2.74,5.043c-1.01-0.033-1.959-0.305-2.789-0.758c0,0.025,0,0.051,0,0.076
		c0,2.934,2.121,5.383,4.938,5.941c-0.516,0.139-1.059,0.213-1.621,0.213c-0.398,0-0.783-0.039-1.158-0.109
		c0.785,2.406,3.055,4.158,5.75,4.207c-2.107,1.625-4.762,2.594-7.646,2.594c-0.498,0-0.986-0.027-1.469-0.084
		C2.725,22.998,5.963,24,9.438,24c11.32,0,17.512-9.23,17.512-17.238c0-0.262-0.004-0.523-0.016-0.783
		c1.199-0.854,2.244-1.922,3.07-3.137c-1.104,0.482-2.289,0.807-3.537,0.953C27.74,3.047,28.715,1.859,29.174,0.443z"/>
</g>
</svg>
