<?xml version="1.0" encoding="utf-8"?>
<!-- Generator: Adobe Illustrator 16.0.0, SVG Export Plug-In . SVG Version: 6.00 Build 0)  -->
<!DOCTYPE svg PUBLIC "-//W3C//DTD SVG 1.1//EN" "http://www.w3.org/Graphics/SVG/1.1/DTD/svg11.dtd">
<svg version="1.1" id="Capa_1" xmlns="http://www.w3.org/2000/svg" xmlns:xlink="http://www.w3.org/1999/xlink" x="0px" y="0px"
	 width="26.569px" height="26.57px" viewBox="0 0 26.569 26.57" enable-background="new 0 0 26.569 26.57" xml:space="preserve">
<path fill="#00FFA8" d="M5.344,11.498c2.125,4.176,5.549,7.588,9.727,9.727l3.248-3.246c0.397-0.398,0.988-0.531,1.504-0.354
	c1.654,0.547,3.44,0.842,5.271,0.842c0.811,0,1.476,0.662,1.476,1.475v5.152c0,0.811-0.665,1.477-1.476,1.477
	C11.232,26.57,0,15.338,0,1.477C0,0.664,0.665,0,1.476,0h5.166c0.812,0,1.477,0.664,1.477,1.477c0,1.846,0.295,3.615,0.841,5.268
	c0.163,0.52,0.044,1.092-0.369,1.508L5.344,11.498z"/>
</svg>
