<svg xmlns="http://www.w3.org/2000/svg" xmlns:xlink="http://www.w3.org/1999/xlink" version="1.1" x="0px" y="0px" viewBox="0 0 100 125" enable-background="new 0 0 100 100" xml:space="preserve"><path d="M33.289,29.501c3.482,0,6.316-2.834,6.316-6.317c0-2.824-3.605-7.91-4.71-9.401c-0.754-1.019-2.46-1.019-3.214,0  c-1.105,1.491-4.709,6.577-4.709,9.401C26.973,26.667,29.806,29.501,33.289,29.501z M33.289,18.497  c1.338,2.086,2.314,4.013,2.316,4.687c0,1.278-1.039,2.317-2.316,2.317s-2.316-1.039-2.316-2.317  C30.975,22.512,31.951,20.585,33.289,18.497z M50,29.501c3.484,0,6.318-2.834,6.318-6.317c0-2.824-3.605-7.91-4.711-9.401  c-0.756-1.019-2.46-1.019-3.214,0c-1.104,1.491-4.71,6.577-4.71,9.401C43.684,26.667,46.518,29.501,50,29.501z M50.001,18.497  c1.337,2.086,2.313,4.013,2.317,4.687c0,1.278-1.041,2.317-2.318,2.317s-2.316-1.039-2.316-2.317  C47.688,22.512,48.664,20.585,50.001,18.497z M66.713,29.501c3.482,0,6.316-2.834,6.316-6.317c0-2.824-3.605-7.91-4.709-9.401  c-0.756-1.019-2.459-1.019-3.215,0c-1.105,1.491-4.709,6.577-4.709,9.401C60.396,26.667,63.23,29.501,66.713,29.501z M66.713,18.497  c1.338,2.088,2.314,4.015,2.316,4.687c0,1.278-1.039,2.317-2.316,2.317s-2.316-1.039-2.316-2.317  C64.398,22.512,65.375,20.585,66.713,18.497z M84.771,82.981h-0.938V52.648c0-3.309-2.691-6-6-6H72.4V34.015c0-1.104-0.896-2-2-2  h-7.373c-1.105,0-2,0.896-2,2v12.634h-5.34V34.015c0-1.104-0.896-2-2-2h-7.373c-1.104,0-2,0.896-2,2v12.634h-5.34V34.015  c0-1.104-0.895-2-2-2h-7.373c-1.104,0-2,0.896-2,2v12.634h-5.434c-3.309,0-6,2.691-6,6v30.333h-0.939c-1.104,0-2,0.896-2,2  s0.896,2,2,2h69.543c1.105,0,2-0.896,2-2S85.877,82.981,84.771,82.981z M65.027,36.015H68.4v10.634h-3.373V36.015z M48.314,36.015  h3.373v10.634h-3.373V36.015z M31.602,36.015h3.373v10.634h-3.373V36.015z M79.834,82.981H20.168v-3.634h59.666V82.981z   M79.834,75.348H20.168v-2.166h59.666V75.348z M79.834,69.182H20.168v-10.5h36.018c1.277,0,2.316,1.039,2.316,2.316  c0,3.483,2.834,6.317,6.316,6.317s6.316-2.834,6.316-6.317c0-1.277,1.039-2.316,2.316-2.316h6.383V69.182z M79.834,54.682h-6.383  c-3.482,0-6.316,2.834-6.316,6.316c0,1.277-1.039,2.317-2.316,2.317s-2.316-1.04-2.316-2.317c0-3.482-2.834-6.316-6.316-6.316  H20.168v-2.033c0-1.103,0.896-2,2-2h7.434h7.373h9.34h7.373h9.34H70.4h7.434c1.102,0,2,0.897,2,2V54.682z"/><text x="0" y="115" fill="#000000" font-size="5px" font-weight="bold" font-family="'Helvetica Neue', Helvetica, Arial-Unicode, Arial, Sans-serif">Created by Sergey Demushkin</text><text x="0" y="120" fill="#000000" font-size="5px" font-weight="bold" font-family="'Helvetica Neue', Helvetica, Arial-Unicode, Arial, Sans-serif">from the Noun Project</text></svg>