<svg xmlns="http://www.w3.org/2000/svg" xmlns:xlink="http://www.w3.org/1999/xlink" version="1.1" x="0px" y="0px" viewBox="0 0 100 125" enable-background="new 0 0 100 100" xml:space="preserve"><path fill="#000000" d="M11.212,94.415c0.599,0.46,24.929-12.41,30.881-18.147c3.445-3.323,5.921-7.512,7.144-12.07  c-3.492-2.277-6.474-4.436-8.338-6.195c-6.38-6.148-10.277-14.627-10.281-23.623c0-0.29,0.035-0.574,0.043-0.862  c-1.807-0.413-3.679-0.654-5.61-0.654C11.219,32.863,0,44.076,0,57.913c0,11.062,7.178,20.452,17.125,23.771  C19.616,82.509,9.063,92.743,11.212,94.415z"/><path fill="#000000" d="M99.679,32.287C99.679,14.452,85.221,0.002,67.385,0C49.556,0.002,35.102,14.454,35.102,32.287  c0.004,8.998,3.9,17.477,10.281,23.625c7.311,6.89,31.781,19.97,36.884,21.949c0.443,0.128,0.572,0.276,1.49,0.325  c0.234-0.035,0.631,0.091,1.542-0.483l-1.483-2.066l1.573,2.001c0.949-0.709,1.366-1.987,1.319-2.814  c-0.062-1.699-0.72-2.778-1.433-4.082c-0.739-1.261-1.658-2.575-2.585-3.875c-1.218-1.656-2.472-3.457-3.195-4.643  C91.329,57.436,99.675,45.839,99.679,32.287z M75.999,58.102c-1.292,0.269-2.363,2.089-2.199,3.083  c0.101,1.74,0.767,2.638,1.468,3.885c0.731,1.184,1.639,2.456,2.557,3.735c0.495,0.672,0.997,1.376,1.468,2.056  c-2.903-1.472-6.68-3.486-10.607-5.699c-7.977-4.479-16.763-9.964-19.771-12.91c-5.458-5.255-8.728-12.451-8.724-19.964  C40.213,17.261,52.362,5.111,67.385,5.082c15.029,0.029,27.183,12.179,27.206,27.205C94.599,44.302,86.794,54.503,75.999,58.102z"/><text x="0" y="115" fill="#000000" font-size="5px" font-weight="bold" font-family="'Helvetica Neue', Helvetica, Arial-Unicode, Arial, Sans-serif">Created by iconoci</text><text x="0" y="120" fill="#000000" font-size="5px" font-weight="bold" font-family="'Helvetica Neue', Helvetica, Arial-Unicode, Arial, Sans-serif">from the Noun Project</text></svg>