<svg xmlns="http://www.w3.org/2000/svg" xmlns:xlink="http://www.w3.org/1999/xlink" version="1.1" x="0px" y="0px" viewBox="0 0 100 125" enable-background="new 0 0 100 100" xml:space="preserve"><path fill="#000000" d="M88.416,33.769c-2.099-4.966-5.105-9.425-8.934-13.251c-3.826-3.827-8.285-6.833-13.25-8.934  C61.087,9.408,55.626,8.305,50,8.305s-11.087,1.103-16.231,3.279c-4.966,2.101-9.425,5.107-13.252,8.934  c-3.827,3.826-6.833,8.285-8.933,13.251C9.408,38.913,8.305,44.374,8.305,50s1.103,11.087,3.279,16.232  c2.1,4.965,5.106,9.424,8.934,13.25c3.826,3.828,8.285,6.834,13.251,8.934c5.144,2.176,10.605,3.279,16.231,3.279  s11.087-1.104,16.232-3.279c4.965-2.1,9.424-5.105,13.25-8.934c3.828-3.826,6.835-8.285,8.934-13.25  c2.176-5.146,3.279-10.606,3.279-16.232S90.592,38.913,88.416,33.769z M83.146,63.273l-2.163,0.814  c-2.186,0.824-4.376,1.56-6.569,2.209c0.822-4.438,1.312-8.877,1.465-13.297h9.691C85.271,56.603,84.437,60.055,83.146,63.273z   M63.275,83.144c-3.22,1.293-6.673,2.127-10.276,2.427v-9.691c4.421-0.153,8.86-0.644,13.299-1.465  c-0.649,2.193-1.387,4.383-2.209,6.569L63.275,83.144z M35.911,80.983c-0.823-2.187-1.559-4.376-2.207-6.569  c4.437,0.821,8.876,1.312,13.296,1.465v9.691c-3.604-0.3-7.055-1.134-10.275-2.427L35.911,80.983z M16.855,63.273  C15.564,60.055,14.729,56.603,14.43,53h9.692c0.152,4.42,0.642,8.859,1.465,13.297c-2.193-0.649-4.384-1.385-6.57-2.209  L16.855,63.273z M16.855,36.726l2.162-0.815c2.187-0.824,4.377-1.559,6.57-2.207C24.764,38.141,24.274,42.58,24.122,47H14.43  C14.729,43.397,15.564,39.946,16.855,36.726z M36.726,16.855c3.22-1.29,6.671-2.125,10.275-2.425v9.691  c-4.42,0.152-8.859,0.643-13.296,1.464c0.648-2.194,1.384-4.383,2.207-6.57L36.726,16.855z M64.089,19.017  c0.822,2.187,1.559,4.376,2.209,6.57c-4.438-0.821-8.878-1.312-13.299-1.464v-9.691c3.604,0.3,7.057,1.135,10.276,2.425  L64.089,19.017z M52.999,30.157c4.989,0.18,9.977,0.811,14.954,1.89c1.078,4.978,1.711,9.964,1.89,14.953H52.999V30.157z M47,30.157  V47H30.157c0.181-4.989,0.812-9.976,1.891-14.953C37.025,30.968,42.012,30.337,47,30.157z M30.157,53H47v16.843  c-4.989-0.181-9.976-0.811-14.953-1.89C30.968,62.976,30.337,57.988,30.157,53z M52.999,69.843V53h16.844  c-0.179,4.988-0.812,9.976-1.89,14.953C62.976,69.032,57.988,69.662,52.999,69.843z M75.879,47  c-0.153-4.42-0.643-8.859-1.465-13.296c2.192,0.648,4.384,1.383,6.569,2.207l2.16,0.815c1.293,3.22,2.127,6.671,2.427,10.274H75.879  z M78.682,28.748c-1.912-0.623-3.827-1.185-5.745-1.685c-0.5-1.917-1.062-3.833-1.686-5.746  C74.079,23.416,76.585,25.921,78.682,28.748z M28.748,21.318c-0.623,1.913-1.185,3.828-1.683,5.746  c-1.918,0.5-3.834,1.062-5.747,1.685C23.416,25.921,25.921,23.416,28.748,21.318z M21.317,71.251  c1.913,0.624,3.829,1.186,5.748,1.686c0.499,1.918,1.061,3.833,1.683,5.746C25.921,76.585,23.416,74.079,21.317,71.251z   M71.251,78.682c0.624-1.912,1.186-3.827,1.686-5.745c1.918-0.5,3.835-1.062,5.745-1.686C76.585,74.079,74.079,76.585,71.251,78.682  z"/><text x="0" y="115" fill="#000000" font-size="5px" font-weight="bold" font-family="'Helvetica Neue', Helvetica, Arial-Unicode, Arial, Sans-serif">Created by Ryan Dell</text><text x="0" y="120" fill="#000000" font-size="5px" font-weight="bold" font-family="'Helvetica Neue', Helvetica, Arial-Unicode, Arial, Sans-serif">from the Noun Project</text></svg>