<svg xmlns="http://www.w3.org/2000/svg" xmlns:xlink="http://www.w3.org/1999/xlink" version="1.1" x="0px" y="0px" viewBox="0 0 48 60" enable-background="new 0 0 48 48" xml:space="preserve"><g><path d="M24,30.5c-7.5,0-13.5-6.1-13.5-13.5c0-7.5,6.1-13.5,13.5-13.5c7.5,0,13.5,6.1,13.5,13.5S31.5,30.5,24,30.5z M24,5.4   c-6.4,0-11.5,5.2-11.5,11.5c0,6.4,5.2,11.6,11.5,11.6c6.4,0,11.5-5.2,11.5-11.6C35.5,10.6,30.4,5.4,24,5.4z"/></g><g><path d="M46.2,44c-0.3,0-0.5-0.1-0.7-0.3c-11.8-11.8-31.1-11.8-42.9,0c-0.4,0.399-1,0.399-1.4,0c-0.4-0.4-0.4-1,0-1.4   c12.6-12.6,33.1-12.6,45.7,0c0.399,0.4,0.399,1,0,1.4C46.7,43.9,46.4,44,46.2,44z"/></g><text x="0" y="63" fill="#000000" font-size="5px" font-weight="bold" font-family="'Helvetica Neue', Helvetica, Arial-Unicode, Arial, Sans-serif">Created by Cassandra Cappello</text><text x="0" y="68" fill="#000000" font-size="5px" font-weight="bold" font-family="'Helvetica Neue', Helvetica, Arial-Unicode, Arial, Sans-serif">from the Noun Project</text></svg>