<svg xmlns="http://www.w3.org/2000/svg" xmlns:xlink="http://www.w3.org/1999/xlink" version="1.1" x="0px" y="0px" viewBox="0 0 100 125" enable-background="new 0 0 100 100" xml:space="preserve"><g><path d="M69,24h-3v-7.5c0-1.93-1.57-3.5-3.5-3.5h-25c-1.93,0-3.5,1.57-3.5,3.5V24h-3v-7.5c0-3.584,2.916-6.5,6.5-6.5h25   c3.584,0,6.5,2.916,6.5,6.5V24z"/></g><path d="M96,25v60H4V25H96 M96,22H4c-1.657,0-3,1.468-3,3.125v60C1,86.782,2.343,88,4,88h92c1.657,0,3-1.218,3-2.875v-60  C99,23.468,97.657,22,96,22L96,22z"/><text x="0" y="115" fill="#000000" font-size="5px" font-weight="bold" font-family="'Helvetica Neue', Helvetica, Arial-Unicode, Arial, Sans-serif">Created by Agus Purwanto</text><text x="0" y="120" fill="#000000" font-size="5px" font-weight="bold" font-family="'Helvetica Neue', Helvetica, Arial-Unicode, Arial, Sans-serif">from the Noun Project</text></svg>